<svg width="224" height="172" viewBox="0 0 224 172" fill="none" xmlns="http://www.w3.org/2000/svg">
<g clip-path="url(#clip0_269_913)">
<path d="M151.183 50.3371C152.215 47.3726 155.096 45.2695 158.132 45.2695H218.201C221.8 45.2695 224.379 48.1924 223.952 51.8045L210.588 165.471C210.161 169.077 206.9 172.006 203.301 172.006H52.687C49.0879 172.006 46.5087 169.083 46.9356 165.471L58.3138 68.7122C58.7407 65.1061 62.0018 62.1772 65.6008 62.1772H134.955C142.052 62.1772 148.782 57.2701 151.189 50.3371H151.183Z" fill="#ADAEFF" fill-opacity="0.5"/>
<path opacity="0.1" d="M151.183 50.3371C152.215 47.3726 155.096 45.2695 158.132 45.2695H218.201C221.8 45.2695 224.379 48.1924 223.952 51.8045L210.588 165.471C210.161 169.077 206.9 172.006 203.301 172.006H52.687C49.0879 172.006 46.5087 169.083 46.9356 165.471L58.3138 68.7122C58.7407 65.1061 62.0018 62.1772 65.6008 62.1772H134.955C142.052 62.1772 148.782 57.2701 151.189 50.3371H151.183Z" fill="#FAFAFA"/>
<path d="M142.87 65.1357L97.4941 0L16.418 56.6996L61.7884 121.841L142.87 65.1357Z" fill="#ADAEFF" fill-opacity="0.5"/>
<path opacity="0.8" d="M142.87 65.1357L97.4941 0L16.418 56.6996L61.7884 121.841L142.87 65.1357Z" fill="#FAFAFA"/>
<path d="M142.782 66.5198L97.2807 1.19995L16.2046 57.8996L61.7054 123.225L142.782 66.5198Z" fill="#FAFAFA"/>
<path d="M95.6424 11.3309L26.2578 59.8474L63.149 112.814L132.534 64.2974L95.6424 11.3309Z" fill="#ADAEFF" fill-opacity="0.5"/>
<path opacity="0.8" d="M95.6424 11.3309L26.2578 59.8474L63.149 112.814L132.534 64.2974L95.6424 11.3309Z" fill="#FAFAFA"/>
<path d="M69.0873 56.9492C72.8286 62.3197 71.5183 69.7161 66.1523 73.4648C60.7923 77.2135 53.4104 75.9006 49.6691 70.5241C45.9277 65.1535 47.2381 57.7572 52.604 54.0085C57.9641 50.2598 65.3459 51.5727 69.0873 56.9492Z" fill="#ADAEFF" fill-opacity="0.5"/>
<path opacity="0.1" d="M69.0873 56.9492C72.8286 62.3197 71.5183 69.7161 66.1523 73.4648C60.7923 77.2135 53.4104 75.9006 49.6691 70.5241C45.9277 65.1535 47.2381 57.7572 52.604 54.0085C57.9641 50.2598 65.3459 51.5727 69.0873 56.9492Z" fill="#FAFAFA"/>
<path d="M113.349 51.7034C109.685 48.026 104.597 46.2912 99.6049 46.7606C99.6049 46.7606 99.6049 46.7606 99.599 46.7606C99.5219 46.6477 99.4626 46.5289 99.3856 46.4219C93.9425 38.6097 83.2107 36.6967 75.4137 42.1505C69.3481 46.3922 66.8638 53.8361 68.6129 60.6087C68.103 60.8523 67.599 61.1315 67.1187 61.4642C63.5612 63.9475 62.0671 68.2784 62.992 72.2647C60.9109 73.1083 58.972 74.4866 57.4778 76.7738C54.7623 80.9324 54.5962 86.404 57.3474 90.5388C61.1895 96.3074 68.9924 97.7689 74.6429 93.8182C74.6429 93.8182 74.6489 93.8182 74.6548 93.8122L94.6007 79.8631L112.88 67.0783C117.061 64.1554 118.288 58.3571 115.394 54.1451C115.377 54.1154 115.353 54.0916 115.335 54.0619C114.736 53.2005 114.072 52.4163 113.355 51.7034H113.349Z" fill="#ADAEFF" fill-opacity="0.5"/>
<path opacity="0.3" d="M113.349 51.7034C109.685 48.026 104.597 46.2912 99.6049 46.7606C99.6049 46.7606 99.6049 46.7606 99.599 46.7606C99.5219 46.6477 99.4626 46.5289 99.3856 46.4219C93.9425 38.6097 83.2107 36.6967 75.4137 42.1505C69.3481 46.3922 66.8638 53.8361 68.6129 60.6087C68.103 60.8523 67.599 61.1315 67.1187 61.4642C63.5612 63.9475 62.0671 68.2784 62.992 72.2647C60.9109 73.1083 58.972 74.4866 57.4778 76.7738C54.7623 80.9324 54.5962 86.404 57.3474 90.5388C61.1895 96.3074 68.9924 97.7689 74.6429 93.8182C74.6429 93.8182 74.6489 93.8182 74.6548 93.8122L94.6007 79.8631L112.88 67.0783C117.061 64.1554 118.288 58.3571 115.394 54.1451C115.377 54.1154 115.353 54.0916 115.335 54.0619C114.736 53.2005 114.072 52.4163 113.355 51.7034H113.349Z" fill="black"/>
<g style="mix-blend-mode:multiply">
<path d="M99.8064 92.1725L99.7353 13.8125L0.859619 13.9076L0.93077 92.1725H99.8064Z" fill="#ADAEFF" fill-opacity="0.5"/>
</g>
<path opacity="0.8" d="M99.8064 92.1725L99.7353 13.8125L0.859619 13.9076L0.93077 92.1725H99.8064Z" fill="#FAFAFA"/>
<path d="M98.9468 93.2598L98.8757 14.6799L0 14.769L0.0711506 93.2598H98.9468Z" fill="#FAFAFA"/>
<path d="M91.7784 22.0881H7.16846V86.6772H91.7784V22.0881Z" fill="#ADAEFF" fill-opacity="0.5"/>
<path opacity="0.8" d="M91.7784 22.0881H7.16846V86.6772H91.7784V22.0881Z" fill="#FAFAFA"/>
<path d="M40.4695 52.6651C45.0912 48.0343 45.0912 40.5262 40.4695 35.8954C35.8477 31.2646 28.3544 31.2646 23.7327 35.8954C19.1109 40.5262 19.1109 48.0343 23.7327 52.6651C28.3544 57.296 35.8477 57.296 40.4695 52.6651Z" fill="#ADAEFF" fill-opacity="0.5"/>
<path opacity="0.1" d="M40.4695 52.6651C45.0912 48.0343 45.0912 40.5262 40.4695 35.8954C35.8477 31.2646 28.3544 31.2646 23.7327 35.8954C19.1109 40.5262 19.1109 48.0343 23.7327 52.6651C28.3544 57.296 35.8477 57.296 40.4695 52.6651Z" fill="#FAFAFA"/>
<path d="M83.2522 65.3199C82.3391 60.2048 79.1611 55.868 74.7972 53.3906C74.7972 53.3906 74.7972 53.3906 74.7912 53.3906C74.7912 53.254 74.809 53.1233 74.809 52.9867C74.8031 43.4575 67.0833 35.7403 57.5728 35.7522C50.179 35.7582 43.8941 40.4455 41.4631 47.0042C40.9058 46.9092 40.3365 46.8498 39.7496 46.8498C35.4153 46.8498 31.7155 49.5469 30.2035 53.3491C28.0156 52.85 25.638 52.8679 23.1062 53.8897C18.5052 55.7492 15.2441 60.1395 15.1433 65.112C15.001 72.045 20.5745 77.7126 27.4642 77.7066C27.4642 77.7066 27.4701 77.7066 27.4761 77.7066L51.8037 77.6829L74.0916 77.665C79.1907 77.665 83.5072 73.6015 83.5309 68.4923C83.5309 68.4567 83.5309 68.427 83.5309 68.3913C83.5309 67.3457 83.436 66.318 83.2522 65.3259V65.3199Z" fill="#ADAEFF" fill-opacity="0.5"/>
<path opacity="0.3" d="M83.2522 65.3199C82.3391 60.2048 79.1611 55.868 74.7972 53.3906C74.7972 53.3906 74.7972 53.3906 74.7912 53.3906C74.7912 53.254 74.809 53.1233 74.809 52.9867C74.8031 43.4575 67.0833 35.7403 57.5728 35.7522C50.179 35.7582 43.8941 40.4455 41.4631 47.0042C40.9058 46.9092 40.3365 46.8498 39.7496 46.8498C35.4153 46.8498 31.7155 49.5469 30.2035 53.3491C28.0156 52.85 25.638 52.8679 23.1062 53.8897C18.5052 55.7492 15.2441 60.1395 15.1433 65.112C15.001 72.045 20.5745 77.7126 27.4642 77.7066C27.4642 77.7066 27.4701 77.7066 27.4761 77.7066L51.8037 77.6829L74.0916 77.665C79.1907 77.665 83.5072 73.6015 83.5309 68.4923C83.5309 68.4567 83.5309 68.427 83.5309 68.3913C83.5309 67.3457 83.436 66.318 83.2522 65.3259V65.3199Z" fill="black"/>
<g style="mix-blend-mode:multiply">
<path d="M183.171 103.413L174.373 23.4307L76.0957 34.2906L84.8769 114.106L183.171 103.413Z" fill="#ADAEFF" fill-opacity="0.5"/>
</g>
<path opacity="0.8" d="M183.171 103.413L174.373 23.4307L76.0957 34.2906L84.8769 114.106L183.171 103.413Z" fill="#FAFAFA"/>
<path d="M182.407 104.315L173.614 24.3811L75.3308 35.241L84.112 115.003L182.407 104.315Z" fill="#FAFAFA"/>
<path d="M167.332 32.4943L83.231 41.7825L90.2935 105.983L174.394 96.6946L167.332 32.4943Z" fill="#ADAEFF" fill-opacity="0.5"/>
<path opacity="0.8" d="M167.332 32.4943L83.231 41.7825L90.2935 105.983L174.394 96.6946L167.332 32.4943Z" fill="#FAFAFA"/>
<path d="M174.135 94.3469L174.39 96.6876L130.704 101.517L141.127 89.1189L151.8 76.4114L174.135 94.3469Z" fill="#ADAEFF" fill-opacity="0.5"/>
<path opacity="0.3" d="M174.135 94.3469L174.39 96.6876L130.704 101.517L141.127 89.1189L151.8 76.4114L174.135 94.3469Z" fill="black"/>
<path d="M155.476 98.7788L90.2903 105.979L89.7271 100.816L115.294 71.73L141.127 89.1189L155.476 98.7788Z" fill="#ADAEFF" fill-opacity="0.5"/>
<path opacity="0.3" d="M155.476 98.7788L90.2903 105.979L89.7271 100.816L115.294 71.73L141.127 89.1189L155.476 98.7788Z" fill="black"/>
<path d="M144.007 63.489C148.172 59.8439 148.6 53.5051 144.962 49.331C141.324 45.1569 134.998 44.7281 130.832 48.3732C126.666 52.0184 126.238 58.3572 129.876 62.5313C133.514 66.7054 139.841 67.1342 144.007 63.489Z" fill="#ADAEFF" fill-opacity="0.5"/>
<path opacity="0.1" d="M144.007 63.489C148.172 59.8439 148.6 53.5051 144.962 49.331C141.324 45.1569 134.998 44.7281 130.832 48.3732C126.666 52.0184 126.238 58.3572 129.876 62.5313C133.514 66.7054 139.841 67.1342 144.007 63.489Z" fill="#FAFAFA"/>
<g style="mix-blend-mode:multiply" opacity="0.7">
<path d="M125.599 74.0649C126.002 71.5043 128.439 69.6924 131.48 69.6924H191.549C195.148 69.6924 198.344 72.2173 198.682 75.3303L206.728 166.368C207.066 169.481 204.422 172.006 200.817 172.006H50.2028C46.6037 172.006 43.4079 169.481 43.0699 166.368L36.6011 89.9151C36.2632 86.8021 38.9076 84.2772 42.5126 84.2772H111.867C118.964 84.2772 124.656 80.0414 125.599 74.0649Z" fill="#ADAEFF" fill-opacity="0.5"/>
</g>
</g>
<defs>
<clipPath id="clip0_269_913">
<rect width="224" height="172" fill="white"/>
</clipPath>
</defs>
</svg>
